<?xml version="1.0" encoding="utf-8"?>
<!-- Generator: Adobe Illustrator 16.0.0, SVG Export Plug-In . SVG Version: 6.00 Build 0)  -->
<!DOCTYPE svg PUBLIC "-//W3C//DTD SVG 1.1//EN" "http://www.w3.org/Graphics/SVG/1.1/DTD/svg11.dtd">
<svg version="1.1" id="Layer_1" xmlns="http://www.w3.org/2000/svg" xmlns:xlink="http://www.w3.org/1999/xlink" x="0px" y="0px"
	 width="99.987px" height="99.987px" viewBox="0 0 99.987 99.987" enable-background="new 0 0 99.987 99.987" xml:space="preserve">
<path fill="000000" stroke="#000000" stroke-linecap="round" stroke-miterlimit="10" d="M1.167,5.667c0.575-6.236,8.594-4,13.295-4
	c2.259,0,4.926-0.407,7.139,0.13c1.635,0.397,3.352,2.022,5.236,1.545c0.599-0.152,1.078-0.803,1.663-1.003
	c0.959-0.329,2.084-0.202,3.045-0.014c0.489,0.096,0.823,0.553,1.417,0.518c0.782-0.046,0.646-0.435,1.196-0.6
	c1.448-0.436,2.501-0.477,4.126-0.001c1.516,0.443,3,1.071,4.576,1.096c2.034,0.033,3.789-1.011,5.868-1.003
	c1.325,0.004,2.816,0.151,4.13-0.066c1.423-0.235,2.801-1.335,4.311-1.071c1.163,0.204,2.193,1.127,3.332,1.284
	c1.532,0.211,2.388,0.33,3.832,0.811c2.244,0.747,4.748,0.542,7.144,0.542c1.491,0,3.071,0.16,4.539-0.126
	c1.137-0.221,2.038-0.973,3.109-1.219C81.07,2.04,83.652,2.5,85.675,2.5c2.22,0,4.439,0,6.659,0c1.364,0,3.956-0.464,4.999,0.362
	C98.421,3.725,98.907,6.687,98.629,8c-0.438,2.069-1.596,3.8-1.794,5.989c-0.484,5.336,3.462,9.744,1.665,15.155
	c-1.343,4.043-0.333,7.606-0.333,11.728c0,2.013,0.171,4.167-0.126,6.129c-0.242,1.602-0.583,3.192-0.34,4.872
	c0.363,2.51,0.324,4.73,0.299,7.299c-0.031,3.155-0.857,6.11-0.999,9.293c-0.267,5.952,0.667,12.09,1.669,17.832
	c0.523,2.998-1.255,3.381-2.219,6.037c-0.923,2.545,0.897,3.698,1.336,5.813c-2.022,0.094-3.872,0.022-5.783,0.396
	c-1.871,0.365-3.998,0.908-5.846,0.666c-3.172-0.417-6.484-0.383-9.861-0.541c-4.624-0.217-9.004-1-13.676-0.348
	c-4.192,0.586-8.273,1.169-12.7,0.468c-4.392-0.696-8.88-0.622-13.211,0.037c-2.462,0.375-4.772,0.676-7.371,0.676
	c-1.426,0-2.551,0.135-3.801-0.459c-0.908-0.432-1.599-1.166-2.538-1.504c-3.761-1.355-6.707,0.828-10.133,1.496
	c-1.772,0.345-3.516,0.224-5.372,0.134c-1.214-0.059-3.198,0.424-4.328-0.001c-3.213-1.208-1.057-6.603-0.826-9.031
	c0.37-3.885-1.714-7.163-1.183-10.993c0.512-3.687,1.175-6.673,1.175-10.466c0-3.364-0.999-6.387-0.833-9.797
	c0.156-3.219,0.996-6.223,0.833-9.542c-0.081-1.658,0.004-3.546-0.296-5.175C1.731,42.506,1.064,41.266,1,39.537
	c-0.129-3.444,0.803-6.563,1.176-9.862c0.411-3.635-0.009-7.147-0.009-10.838c0-4.525,0.29-9.126-1-13.337"/>
</svg>
