<?xml version="1.0" encoding="utf-8"?>
<!-- Generator: Adobe Illustrator 16.0.0, SVG Export Plug-In . SVG Version: 6.00 Build 0)  -->
<!DOCTYPE svg PUBLIC "-//W3C//DTD SVG 1.1//EN" "http://www.w3.org/Graphics/SVG/1.1/DTD/svg11.dtd">
<svg version="1.1" id="Layer_1" xmlns="http://www.w3.org/2000/svg" xmlns:xlink="http://www.w3.org/1999/xlink" x="0px" y="0px"
	 width="300px" height="300px" viewBox="0 0 300 300" enable-background="new 0 0 300 300" xml:space="preserve">
<path fill="none" stroke="#000000" stroke-width="2" stroke-miterlimit="10" d="M295.522,295.51h-39.954c0,0-32.74,0.608-35.679,0
	c-14.305-2.959-76.291,0-76.291,0l-88.293-3.452L4.993,295.51c0,0,0.771-11.811-0.067-31.568c-0.838-19.757-0.5-94.766,0.067-81.388
	c0.568,13.378,0.494-99.145,2.466-118.875C9.433,43.948,4.993,4.98,4.993,4.98s17.696-1.048,21.704,0c4.008,1.048,25.649,0,25.649,0
	s42.112-2.158,47.847,0c5.734,2.158,79.415,0,79.415,0s35.268-1.973,41.434,0c6.165,1.973,54.751,0,54.751,0h19.73
	c0,0-0.986,31.569,0,38.474c-3.945,6.413,0,75.469,0,75.469s3.946,47.353,0,56.232c-3.945,8.878,0,60.671,0,60.671V274.3V295.51z"/>
<path fill="none" stroke="#000000" stroke-width="2" stroke-miterlimit="10" d="M7.154,6.23h39.45c0,0,32.327-0.6,35.227,0
	c14.124,2.921,75.327,0,75.327,0l87.178,3.409l49.677-3.409c0,0-0.761,11.661,0.067,31.169c0.827,19.509,0.494,93.568-0.067,80.36
	c-0.561-13.209-0.487,97.893-2.435,117.373c-1.949,19.481,2.435,57.957,2.435,57.957s-17.472,1.034-21.429,0
	c-3.957-1.035-25.324,0-25.324,0s-41.582,2.131-47.243,0s-78.411,0-78.411,0s-34.822,1.947-40.91,0c-6.088-1.949-54.06,0-54.06,0
	H7.154c0,0,0.974-31.17,0-37.988c3.896-6.332,0-74.516,0-74.516s-3.896-46.754,0-55.521s0-59.905,0-59.905V27.173V6.23z"/>
</svg>
