<?xml version="1.0" encoding="utf-8"?>
<!-- Generator: Adobe Illustrator 16.0.0, SVG Export Plug-In . SVG Version: 6.00 Build 0)  -->
<!DOCTYPE svg PUBLIC "-//W3C//DTD SVG 1.0//EN" "http://www.w3.org/TR/2001/REC-SVG-20010904/DTD/svg10.dtd">
<svg version="1.0" id="Layer_1" xmlns="http://www.w3.org/2000/svg" xmlns:xlink="http://www.w3.org/1999/xlink" x="0px" y="0px"
	 width="472.94px" height="453.943px" viewBox="0 0 472.94 453.943" enable-background="new 0 0 472.94 453.943"
	 xml:space="preserve">
	 <mask id="services_mask" maskUnits="objectBoundingBox">
<path fill="#FFFFFF" d="M16.632,6.128c0,0,20.428,7.656,49.597,7.656c35.415,0,85.563-14.785,138.458-7.656
	C295.614,18.379,352.822,0,401.008,0c30.364,0,49.596,6.128,49.596,6.128c5.709,0,10.335,3.427,10.335,7.656
	c0,0-12.401,20.336-12.401,52.071c0,27.92,12.401,64.664,12.401,104.144c0,68.13-8.269,144.41-8.269,197.563
	c0,40.361,8.269,67.386,8.269,67.386c0,4.231-4.626,7.658-10.335,7.658c0,0-16.852,7.658-49.596,7.658
	c-35.069,0-87.76,1.531-138.458,1.531c-85.963,0-155.364-13.785-198.388-13.785c-15.646,0-47.53,4.596-47.53,4.596
	c-5.708,0-10.334-3.429-10.334-7.658c0,0,18.599-45.805,0-107.206c-17.985-59.373,8.266-137.021,8.266-199.095
	c0-65.208-8.266-114.863-8.266-114.863C6.299,9.555,10.925,6.128,16.632,6.128z"/>
	</mask>
</svg>
