<?xml version="1.0" encoding="utf-8"?>
<!-- Generator: Adobe Illustrator 16.0.0, SVG Export Plug-In . SVG Version: 6.00 Build 0)  -->
<!DOCTYPE svg PUBLIC "-//W3C//DTD SVG 1.1//EN" "http://www.w3.org/Graphics/SVG/1.1/DTD/svg11.dtd">
<svg version="1.1" id="Layer_1" xmlns="http://www.w3.org/2000/svg" xmlns:xlink="http://www.w3.org/1999/xlink" x="0px" y="0px"
	 width="1098.269px" height="485.704px" viewBox="0 0 1098.269 485.704" enable-background="new 0 0 1098.269 485.704"
	 xml:space="preserve">
	 <mask id="slider_mask" maskUnits="objectBoundingBox">
<path fill="#FFFFFF" d="M24.456,22.375c0,0,70.745,3.231,126.546,1.952c48.393-1.109,76.55,14.903,149.789,13.224
	c103.527-2.375,216.89-16.453,331.704-19.087C715.093,16.57,808.196,1.68,876.645,0.11c59.654-1.368,97.361,10.521,134.377,9.673
	c40.094-0.92,63.658-1.461,63.658-1.461c3.139-0.072,5.737,2.724,5.805,6.244c0,0,15.675,105.395,17.712,211.314
	c1.127,58.579-11.385,117.533-10.599,158.396c0.64,33.32,1.057,54.819,1.057,54.819c0.066,3.521-2.425,6.434-5.562,6.503
	c0,0-86.337,13.461-211.212,16.324c-57.11,1.311-123.357-8.648-191.19-7.094c-92.965,2.134-191.655-5.807-283.241-3.706
	c-34.549,0.793-67.919,11.762-99.835,12.491c-55.897,1.282-137.078,21.003-179.259,21.969
	c-75.096,1.724-92.418-15.735-92.418-15.735c-3.14,0.073-5.739-2.723-5.806-6.246c0,0,10.846-27.343,10.068-67.825
	c-0.73-37.895-13.052-87.269-14.018-137.426C15.331,214.122,0.758,165.977,0.04,128.626c-1.043-54.204,18.854-99.748,18.854-99.748
	C18.827,25.359,21.316,22.446,24.456,22.375z"/>
	</mask>
</svg>
