<?xml version="1.0" encoding="utf-8"?>
<!-- Generator: Adobe Illustrator 16.0.0, SVG Export Plug-In . SVG Version: 6.00 Build 0)  -->
<!DOCTYPE svg PUBLIC "-//W3C//DTD SVG 1.1//EN" "http://www.w3.org/Graphics/SVG/1.1/DTD/svg11.dtd">
<svg version="1.1" id="Layer_1" xmlns="http://www.w3.org/2000/svg" xmlns:xlink="http://www.w3.org/1999/xlink" x="0px" y="0px"
	 width="182.978px" height="182.978px" viewBox="0 0 182.978 182.978" enable-background="new 0 0 182.978 182.978"
	 xml:space="preserve">
	 <mask id="small_mask" maskUnits="objectBoundingBox">
<path fill="#FFFFFF" d="M4.437,1.868c0,0,8.145,3.136,19.69,3.183c14.018,0.056,33.751-5.855,54.744-2.882
	C114.958,7.279,137.457-0.077,156.528,0c12.021,0.047,19.683,2.561,19.683,2.561c2.256,0.01,4.116,1.405,4.148,3.12
	c0,0-4.744,8.221-4.494,21.083c0.222,11.315,5.42,26.224,5.734,42.224c0.541,27.611-2.125,58.512-1.704,80.052
	c0.318,16.356,3.807,27.322,3.807,27.322c0.032,1.714-1.771,3.096-4.029,3.086c0,0-6.608,3.075-19.57,3.024
	c-13.88-0.056-34.724,0.481-54.791,0.398c-34.027-0.136-61.605-5.835-78.636-5.903c-6.193-0.026-18.776,1.79-18.776,1.79
	c-2.26-0.013-4.119-1.408-4.151-3.122c0,0,6.999-18.533-0.85-43.443c-7.59-24.096,2.185-55.52,1.691-80.674
	C4.072,25.091,0.407,4.954,0.407,4.954C0.373,3.24,2.177,1.858,4.437,1.868z"/>
	</mask>
</svg>
