<?xml version="1.0" encoding="utf-8"?>
<!-- Generator: Adobe Illustrator 16.0.0, SVG Export Plug-In . SVG Version: 6.00 Build 0)  -->
<!DOCTYPE svg PUBLIC "-//W3C//DTD SVG 1.1//EN" "http://www.w3.org/Graphics/SVG/1.1/DTD/svg11.dtd">
<svg version="1.1" id="Layer_1" xmlns="http://www.w3.org/2000/svg" xmlns:xlink="http://www.w3.org/1999/xlink" x="0px" y="0px"
	 width="372.953px" height="372.953px" viewBox="0 0 372.953 372.953" enable-background="new 0 0 372.953 372.953"
	 xml:space="preserve">
	 <mask id="thumb_mask" maskUnits="objectBoundingBox">
<path fill="#FFFFFF" d="M8.99,3.787c0,0,16.505,6.351,39.897,6.445c28.402,0.116,68.381-11.859,110.914-5.837
	c73.114,10.351,118.7-4.55,157.342-4.394C341.495,0.1,357.016,5.19,357.016,5.19c4.576,0.019,8.341,2.848,8.409,6.32
	c0,0-9.616,16.652-9.106,42.702c0.447,22.919,10.981,53.119,11.617,85.526c1.092,55.926-4.31,118.515-3.453,162.147
	c0.648,33.13,7.713,55.342,7.713,55.342c0.066,3.473-3.588,6.272-8.164,6.253c0,0-13.394,6.232-39.65,6.127
	c-28.126-0.116-70.353,0.97-111.014,0.808c-68.938-0.277-124.815-11.816-159.319-11.958c-12.548-0.049-38.045,3.619-38.045,3.619
	c-4.577-0.02-8.341-2.849-8.409-6.319c0,0,14.18-37.541-1.723-88C-9.506,218.959,10.298,155.306,9.3,104.353
	C8.254,50.824,0.828,10.039,0.828,10.039C0.76,6.567,4.415,3.767,8.99,3.787z"/>
	</mask>
</svg>
